<mxfile host="app.diagrams.net" modified="2022-12-09T03:55:34.413Z" agent="5.0 (Windows NT 10.0; WOW64) AppleWebKit/537.36 (KHTML, like Gecko) Chrome/104.0.0.0 Safari/537.36" version="20.6.0" etag="35eThx_gWq9OWLonWpXV" type="github">
  <diagram id="ojH-sb7A5oOOtLaTooQ6" name="第 1 页">
    <mxGraphModel dx="779" dy="768" grid="1" gridSize="10" guides="1" tooltips="1" connect="1" arrows="1" fold="1" page="1" pageScale="1" pageWidth="827" pageHeight="1169" math="0" shadow="0">
      <root>
        <mxCell id="0" />
        <mxCell id="1" parent="0" />
        <mxCell id="ZjYhPfsSYRH2SzfwsZLg-16" style="edgeStyle=orthogonalEdgeStyle;rounded=0;orthogonalLoop=1;jettySize=auto;html=1;entryX=0.5;entryY=0;entryDx=0;entryDy=0;" edge="1" parent="1" source="ZjYhPfsSYRH2SzfwsZLg-1" target="ZjYhPfsSYRH2SzfwsZLg-3">
          <mxGeometry relative="1" as="geometry" />
        </mxCell>
        <mxCell id="ZjYhPfsSYRH2SzfwsZLg-1" value="开始" style="rounded=1;whiteSpace=wrap;html=1;" vertex="1" parent="1">
          <mxGeometry x="290" y="60" width="120" height="30" as="geometry" />
        </mxCell>
        <mxCell id="ZjYhPfsSYRH2SzfwsZLg-2" value="小法庭庭审流程图" style="text;html=1;strokeColor=none;fillColor=none;align=center;verticalAlign=middle;whiteSpace=wrap;rounded=0;" vertex="1" parent="1">
          <mxGeometry x="285" y="10" width="130" height="30" as="geometry" />
        </mxCell>
        <mxCell id="ZjYhPfsSYRH2SzfwsZLg-17" style="edgeStyle=orthogonalEdgeStyle;rounded=0;orthogonalLoop=1;jettySize=auto;html=1;entryX=0.5;entryY=0;entryDx=0;entryDy=0;" edge="1" parent="1" source="ZjYhPfsSYRH2SzfwsZLg-3" target="ZjYhPfsSYRH2SzfwsZLg-5">
          <mxGeometry relative="1" as="geometry">
            <Array as="points">
              <mxPoint x="350" y="140" />
              <mxPoint x="220" y="140" />
            </Array>
          </mxGeometry>
        </mxCell>
        <mxCell id="ZjYhPfsSYRH2SzfwsZLg-18" style="edgeStyle=orthogonalEdgeStyle;rounded=0;orthogonalLoop=1;jettySize=auto;html=1;entryX=0.5;entryY=0;entryDx=0;entryDy=0;" edge="1" parent="1" source="ZjYhPfsSYRH2SzfwsZLg-3" target="ZjYhPfsSYRH2SzfwsZLg-4">
          <mxGeometry relative="1" as="geometry" />
        </mxCell>
        <mxCell id="ZjYhPfsSYRH2SzfwsZLg-19" style="edgeStyle=orthogonalEdgeStyle;rounded=0;orthogonalLoop=1;jettySize=auto;html=1;" edge="1" parent="1" source="ZjYhPfsSYRH2SzfwsZLg-3" target="ZjYhPfsSYRH2SzfwsZLg-6">
          <mxGeometry relative="1" as="geometry">
            <Array as="points">
              <mxPoint x="350" y="140" />
              <mxPoint x="490" y="140" />
            </Array>
          </mxGeometry>
        </mxCell>
        <mxCell id="ZjYhPfsSYRH2SzfwsZLg-3" value="三方收到出庭通知" style="rounded=0;whiteSpace=wrap;html=1;" vertex="1" parent="1">
          <mxGeometry x="290" y="105" width="120" height="30" as="geometry" />
        </mxCell>
        <mxCell id="ZjYhPfsSYRH2SzfwsZLg-21" style="edgeStyle=orthogonalEdgeStyle;rounded=0;orthogonalLoop=1;jettySize=auto;html=1;entryX=0.5;entryY=0;entryDx=0;entryDy=0;" edge="1" parent="1" source="ZjYhPfsSYRH2SzfwsZLg-4" target="ZjYhPfsSYRH2SzfwsZLg-7">
          <mxGeometry relative="1" as="geometry" />
        </mxCell>
        <mxCell id="ZjYhPfsSYRH2SzfwsZLg-4" value="卖家确认庭前准备" style="rounded=0;whiteSpace=wrap;html=1;" vertex="1" parent="1">
          <mxGeometry x="290" y="160" width="120" height="40" as="geometry" />
        </mxCell>
        <mxCell id="ZjYhPfsSYRH2SzfwsZLg-20" style="edgeStyle=orthogonalEdgeStyle;rounded=0;orthogonalLoop=1;jettySize=auto;html=1;entryX=0.5;entryY=0;entryDx=0;entryDy=0;" edge="1" parent="1" source="ZjYhPfsSYRH2SzfwsZLg-5" target="ZjYhPfsSYRH2SzfwsZLg-7">
          <mxGeometry relative="1" as="geometry">
            <Array as="points">
              <mxPoint x="220" y="210" />
              <mxPoint x="350" y="210" />
            </Array>
          </mxGeometry>
        </mxCell>
        <mxCell id="ZjYhPfsSYRH2SzfwsZLg-5" value="买家确认庭前准备" style="rounded=0;whiteSpace=wrap;html=1;" vertex="1" parent="1">
          <mxGeometry x="160" y="160" width="120" height="40" as="geometry" />
        </mxCell>
        <mxCell id="ZjYhPfsSYRH2SzfwsZLg-22" style="edgeStyle=orthogonalEdgeStyle;rounded=0;orthogonalLoop=1;jettySize=auto;html=1;entryX=0.5;entryY=0;entryDx=0;entryDy=0;" edge="1" parent="1" source="ZjYhPfsSYRH2SzfwsZLg-6" target="ZjYhPfsSYRH2SzfwsZLg-7">
          <mxGeometry relative="1" as="geometry">
            <Array as="points">
              <mxPoint x="490" y="210" />
              <mxPoint x="350" y="210" />
            </Array>
          </mxGeometry>
        </mxCell>
        <mxCell id="ZjYhPfsSYRH2SzfwsZLg-6" value="陪审团确认庭前准备" style="rounded=0;whiteSpace=wrap;html=1;" vertex="1" parent="1">
          <mxGeometry x="430" y="160" width="120" height="40" as="geometry" />
        </mxCell>
        <mxCell id="ZjYhPfsSYRH2SzfwsZLg-7" value="线上法庭群创建" style="rounded=0;whiteSpace=wrap;html=1;" vertex="1" parent="1">
          <mxGeometry x="290" y="229" width="120" height="40" as="geometry" />
        </mxCell>
        <mxCell id="ZjYhPfsSYRH2SzfwsZLg-23" style="edgeStyle=orthogonalEdgeStyle;rounded=0;orthogonalLoop=1;jettySize=auto;html=1;" edge="1" parent="1" source="ZjYhPfsSYRH2SzfwsZLg-8" target="ZjYhPfsSYRH2SzfwsZLg-9">
          <mxGeometry relative="1" as="geometry" />
        </mxCell>
        <mxCell id="ZjYhPfsSYRH2SzfwsZLg-8" value="开始庭审：询问、举证、质证、证明证据合法性" style="shape=process;whiteSpace=wrap;html=1;backgroundOutline=1;" vertex="1" parent="1">
          <mxGeometry x="260" y="300" width="180" height="40" as="geometry" />
        </mxCell>
        <mxCell id="ZjYhPfsSYRH2SzfwsZLg-24" style="edgeStyle=orthogonalEdgeStyle;rounded=0;orthogonalLoop=1;jettySize=auto;html=1;entryX=0.5;entryY=0;entryDx=0;entryDy=0;" edge="1" parent="1">
          <mxGeometry relative="1" as="geometry">
            <mxPoint x="350" y="382" as="sourcePoint" />
            <mxPoint x="345" y="402" as="targetPoint" />
          </mxGeometry>
        </mxCell>
        <mxCell id="ZjYhPfsSYRH2SzfwsZLg-9" value="案件结论" style="rounded=0;whiteSpace=wrap;html=1;" vertex="1" parent="1">
          <mxGeometry x="290" y="342" width="120" height="40" as="geometry" />
        </mxCell>
        <mxCell id="ZjYhPfsSYRH2SzfwsZLg-29" style="edgeStyle=orthogonalEdgeStyle;rounded=0;orthogonalLoop=1;jettySize=auto;html=1;entryX=0.44;entryY=0.03;entryDx=0;entryDy=0;entryPerimeter=0;" edge="1" parent="1" source="ZjYhPfsSYRH2SzfwsZLg-11" target="ZjYhPfsSYRH2SzfwsZLg-12">
          <mxGeometry relative="1" as="geometry">
            <Array as="points">
              <mxPoint x="240" y="422" />
              <mxPoint x="240" y="447" />
              <mxPoint x="238" y="447" />
            </Array>
          </mxGeometry>
        </mxCell>
        <mxCell id="ZjYhPfsSYRH2SzfwsZLg-11" value="交易双方是否同意结果" style="rhombus;whiteSpace=wrap;html=1;" vertex="1" parent="1">
          <mxGeometry x="260" y="402" width="170" height="40" as="geometry" />
        </mxCell>
        <mxCell id="ZjYhPfsSYRH2SzfwsZLg-12" value="记录不同意意见，追诉下次再审" style="rounded=0;whiteSpace=wrap;html=1;" vertex="1" parent="1">
          <mxGeometry x="185" y="467" width="120" height="40" as="geometry" />
        </mxCell>
        <mxCell id="ZjYhPfsSYRH2SzfwsZLg-13" value="结论交易双方线上确认" style="rounded=0;whiteSpace=wrap;html=1;" vertex="1" parent="1">
          <mxGeometry x="395" y="467" width="120" height="40" as="geometry" />
        </mxCell>
        <mxCell id="ZjYhPfsSYRH2SzfwsZLg-14" value="结束" style="rounded=1;whiteSpace=wrap;html=1;" vertex="1" parent="1">
          <mxGeometry x="395" y="512" width="120" height="40" as="geometry" />
        </mxCell>
        <mxCell id="ZjYhPfsSYRH2SzfwsZLg-15" value="结束" style="rounded=1;whiteSpace=wrap;html=1;" vertex="1" parent="1">
          <mxGeometry x="185" y="512" width="120" height="40" as="geometry" />
        </mxCell>
      </root>
    </mxGraphModel>
  </diagram>
</mxfile>
